RobotoExtremo-opsz14-wght100-wdth100-XOPQmin.ufo
<glyph name="exclam" format="2">
  <advance width="459"/>
  <unicode hex="0021"/>
  <outline>
    <contour>
      <point x="186.0" y="67.0" type="qcurve" smooth="yes"/>
      <point x="186.0" y="104.0"/>
      <point x="209.05797101449275" y="156.0"/>
      <point x="229.8695652173913" y="156.0" type="qcurve" smooth="yes"/>
      <point x="250.68115942028984" y="156.0"/>
      <point x="272.7391304347826" y="104.0"/>
      <point x="272.7391304347826" y="67.0" type="qcurve" smooth="yes"/>
      <point x="272.7391304347826" y="30.0"/>
      <point x="250.68115942028984" y="-22.0"/>
      <point x="229.8695652173913" y="-22.0" type="qcurve" smooth="yes"/>
      <point x="209.05797101449275" y="-22.0"/>
      <point x="186.0" y="30.0"/>
    </contour>
    <contour>
      <point x="214.47826086956522" y="390.0" type="line"/>
      <point x="211.2463768115942" y="1456.0" type="line"/>
      <point x="248.4927536231884" y="1456.0" type="line"/>
      <point x="244.26086956521738" y="390.0" type="line"/>
    </contour>
  </outline>
</glyph>
<glyph name="quotedbl" format="2">
  <advance width="519"/>
  <unicode hex="0022"/>
  <outline>
    <contour>
      <point x="104.94869565217391" y="1099.28" type="line"/>
      <point x="100.0" y="1356.72" type="line"/>
      <point x="100.0" y="1456.0" type="line"/>
      <point x="159.38434782608692" y="1456.0" type="line"/>
      <point x="159.38434782608692" y="1356.72" type="line"/>
      <point x="154.43565217391304" y="1099.28" type="line"/>
    </contour>
    <contour>
      <point x="364.3330434782609" y="1099.28" type="line"/>
      <point x="359.3843478260869" y="1356.72" type="line"/>
      <point x="359.3843478260869" y="1456.0" type="line"/>
      <point x="418.76869565217385" y="1456.0" type="line"/>
      <point x="418.76869565217385" y="1356.72" type="line"/>
      <point x="413.82" y="1099.28" type="line"/>
    </contour>
  </outline>
</glyph>
<glyph name="dollar" format="2">
  <advance width="948"/>
  <unicode hex="0024"/>
  <outline>
    <contour>
      <point x="96.0" y="410.2463768115942" type="qcurve" smooth="yes"/>
      <point x="96.0" y="423.0" type="line"/>
      <point x="136.65217391304347" y="423.0" type="line"/>
      <point x="136.65217391304347" y="410.2463768115942" type="line" smooth="yes"/>
      <point x="136.65217391304347" y="242.2173913043478"/>
      <point x="320.9130434782609" y="85.0"/>
      <point x="487.17391304347825" y="85.0" type="qcurve" smooth="yes"/>
      <point x="651.4347826086956" y="85.0"/>
      <point x="829.695652173913" y="239.34782608695653"/>
      <point x="828.695652173913" y="362.6231884057971" type="qcurve" smooth="yes"/>
      <point x="827.695652173913" y="493.8985507246377"/>
      <point x="695.6376811594203" y="640.2028985507246"/>
      <point x="505.6811594202899" y="693.2173913043479" type="qcurve" smooth="yes"/>
      <point x="295.3478260869565" y="751.9855072463768"/>
      <point x="124.6231884057971" y="935.7101449275362"/>
      <point x="124.6231884057971" y="1096.376811594203" type="qcurve" smooth="yes"/>
      <point x="124.6231884057971" y="1262.2898550724638"/>
      <point x="308.768115942029" y="1456.0"/>
      <point x="477.5507246376812" y="1456.0" type="qcurve" smooth="yes"/>
      <point x="642.9565217391305" y="1456.0"/>
      <point x="839.9710144927536" y="1233.0434782608695"/>
      <point x="839.9710144927536" y="1051.376811594203" type="qcurve" smooth="yes"/>
      <point x="839.9710144927536" y="1039.0" type="line"/>
      <point x="798.3188405797101" y="1039.0" type="line"/>
      <point x="798.3188405797101" y="1051.376811594203" type="line" smooth="yes"/>
      <point x="798.3188405797101" y="1200.0289855072465"/>
      <point x="636.0579710144928" y="1363.0869565217392"/>
      <point x="477.17391304347825" y="1363.0869565217392" type="qcurve" smooth="yes"/>
      <point x="316.9130434782609" y="1363.0869565217392"/>
      <point x="166.02898550724638" y="1230.2753623188405"/>
      <point x="166.02898550724638" y="1096.376811594203" type="qcurve" smooth="yes"/>
      <point x="166.02898550724638" y="985.8550724637681"/>
      <point x="305.768115942029" y="849.5217391304348"/>
      <point x="517.231884057971" y="784.5072463768116" type="qcurve" smooth="yes"/>
      <point x="699.072463768116" y="727.4927536231884"/>
      <point x="869.1014492753624" y="549.6666666666666"/>
      <point x="869.1014492753624" y="382.6231884057971" type="qcurve" smooth="yes"/>
      <point x="869.1014492753624" y="205.95652173913044"/>
      <point x="664.3333333333334" y="-3.391304347826087"/>
      <point x="487.17391304347825" y="-3.391304347826087" type="qcurve" smooth="yes"/>
      <point x="310.0144927536232" y="-3.391304347826087"/>
      <point x="96.0" y="206.82608695652175"/>
    </contour>
    <contour>
      <point x="462.1304347826087" y="-148.1159420289855" type="line"/>
      <point x="462.1304347826087" y="728.0" type="line"/>
      <point x="503.72463768115944" y="728.0" type="line"/>
      <point x="503.72463768115944" y="51.88405797101449" type="line"/>
      <point x="500.4492753623188" y="41.88405797101449" type="line"/>
      <point x="500.4492753623188" y="-148.1159420289855" type="line"/>
    </contour>
    <contour>
      <point x="459.8550724637681" y="728.0" type="line"/>
      <point x="460.60869565217394" y="1390.927536231884" type="line"/>
      <point x="462.8840579710145" y="1400.927536231884" type="line"/>
      <point x="462.8840579710145" y="1609.768115942029" type="line"/>
      <point x="501.2028985507246" y="1609.768115942029" type="line"/>
      <point x="500.4492753623188" y="728.0" type="line"/>
    </contour>
  </outline>
</glyph>
<glyph name="ampersand" format="2">
  <advance width="1007"/>
  <unicode hex="0026"/>
  <outline>
    <contour>
      <point x="80.0" y="380.0" type="qcurve" smooth="yes"/>
      <point x="80.0" y="525.92"/>
      <point x="224.37362318840582" y="735.08"/>
      <point x="360.38289855072463" y="830.68" type="qcurve" smooth="yes"/>
      <point x="477.32637681159423" y="919.84" type="line" smooth="yes"/>
      <point x="548.5646376811593" y="970.0"/>
      <point x="637.1344927536231" y="1095.76"/>
      <point x="637.1344927536231" y="1176.8" type="qcurve" smooth="yes"/>
      <point x="637.1344927536231" y="1268.16"/>
      <point x="539.9344927536231" y="1403.36"/>
      <point x="449.6544927536232" y="1403.36" type="qcurve" smooth="yes"/>
      <point x="358.41449275362316" y="1403.36"/>
      <point x="251.6144927536232" y="1258.16"/>
      <point x="251.6144927536232" y="1160.0" type="qcurve" smooth="yes"/>
      <point x="251.6144927536232" y="1084.24"/>
      <point x="307.70057971014495" y="940.04"/>
      <point x="401.40608695652173" y="814.6" type="qcurve" smooth="yes"/>
      <point x="983.6318840579711" y="0.0" type="line"/>
      <point x="932.4944927536233" y="0.0" type="line"/>
      <point x="366.54318840579714" y="767.52" type="line" smooth="yes"/>
      <point x="263.72086956521736" y="905.04"/>
      <point x="212.88637681159418" y="1066.8"/>
      <point x="212.88637681159418" y="1160.0" type="qcurve" smooth="yes"/>
      <point x="212.88637681159418" y="1301.12"/>
      <point x="344.8950724637681" y="1486.0"/>
      <point x="449.6544927536232" y="1486.0" type="qcurve" smooth="yes"/>
      <point x="553.7739130434783" y="1486.0"/>
      <point x="678.7907246376811" y="1311.92"/>
      <point x="678.7907246376811" y="1180.16" type="qcurve" smooth="yes"/>
      <point x="678.7907246376811" y="1073.6"/>
      <point x="583.1973913043479" y="914.24"/>
      <point x="502.66956521739127" y="855.68" type="qcurve" smooth="yes"/>
      <point x="383.32608695652175" y="764.6" type="line" smooth="yes"/>
      <point x="249.34869565217392" y="671.4"/>
      <point x="118.8144927536232" y="494.08"/>
      <point x="118.8144927536232" y="380.0" type="qcurve" smooth="yes"/>
      <point x="118.8144927536232" y="242.8"/>
      <point x="285.05449275362315" y="62.64"/>
      <point x="423.53449275362317" y="62.64" type="qcurve" smooth="yes"/>
      <point x="613.6144927536232" y="62.64"/>
      <point x="888.0144927536232" y="392.8"/>
      <point x="888.0144927536232" y="674.0" type="qcurve"/>
      <point x="928.2307246376811" y="674.0" type="line"/>
      <point x="928.2307246376811" y="380.0"/>
      <point x="638.0939130434782" y="-20.0"/>
      <point x="423.53449275362317" y="-20.0" type="qcurve" smooth="yes"/>
      <point x="261.7431884057971" y="-20.0"/>
      <point x="80.0" y="213.2"/>
    </contour>
  </outline>
</glyph>
<glyph name="parenright" format="2">
  <advance width="543"/>
  <unicode hex="0029"/>
  <outline>
    <contour>
      <point x="14.0" y="-436.0" type="qcurve"/>
      <point x="14.0" y="-340.536231884058" type="line"/>
      <point x="160.768115942029" y="-266.536231884058"/>
      <point x="381.0" y="120.36521739130436"/>
      <point x="381.0" y="508.0" type="qcurve" smooth="yes"/>
      <point x="381.0" y="532.0" type="line" smooth="yes"/>
      <point x="381.0" y="914.3594202898552"/>
      <point x="160.768115942029" y="1305.536231884058"/>
      <point x="14.0" y="1379.536231884058" type="qcurve"/>
      <point x="14.0" y="1476.0" type="line"/>
      <point x="183.92753623188406" y="1397.0"/>
      <point x="419.64637681159417" y="921.1304347826087"/>
      <point x="419.64637681159417" y="525.0" type="qcurve" smooth="yes"/>
      <point x="419.64637681159417" y="515.0" type="line" smooth="yes"/>
      <point x="419.64637681159417" y="112.46376811594203"/>
      <point x="183.92753623188406" y="-357.0"/>
    </contour>
  </outline>
</glyph>
<glyph name="comma" format="2">
  <advance width="459"/>
  <unicode hex="002C"/>
  <outline>
    <contour>
      <point x="172.5414492753623" y="-159.51999999999998" type="line"/>
      <point x="191.50434782608696" y="-113.19999999999999"/>
      <point x="210.0" y="-14.559999999999999"/>
      <point x="210.0" y="50.959999999999994" type="qcurve" smooth="yes"/>
      <point x="210.0" y="160.16" type="line"/>
      <point x="269.3843478260869" y="160.16" type="line"/>
      <point x="269.3843478260869" y="50.959999999999994" type="line" smooth="yes"/>
      <point x="269.3843478260869" y="-29.119999999999997"/>
      <point x="242.62666666666664" y="-153.28"/>
      <point x="216.11681159420291" y="-201.92" type="qcurve"/>
    </contour>
  </outline>
</glyph>
<glyph name="one" format="2">
  <advance width="1156"/>
  <unicode hex="0031"/>
  <outline>
    <contour>
      <point x="617.3768115942029" y="0.0" type="line"/>
      <point x="617.3768115942029" y="1363.0" type="line"/>
      <point x="227.3768115942029" y="1212.0" type="line"/>
      <point x="227.3768115942029" y="1309.0" type="line"/>
      <point x="624.3768115942029" y="1476.0" type="line"/>
      <point x="655.3768115942029" y="1476.0" type="line"/>
      <point x="655.3768115942029" y="0.0" type="line"/>
    </contour>
  </outline>
</glyph>
<glyph name="two" format="2">
  <advance width="1156"/>
  <unicode hex="0032"/>
  <outline>
    <contour>
      <point x="212.9855072463768" y="0.0" type="line"/>
      <point x="212.9855072463768" y="79.0" type="line"/>
      <point x="700.2608695652174" y="627.1159420289855" type="line" smooth="yes"/>
      <point x="796.6086956521739" y="737.7391304347826"/>
      <point x="909.0" y="973.0"/>
      <point x="909.0" y="1101.0" type="qcurve" smooth="yes"/>
      <point x="909.0" y="1214.0"/>
      <point x="752.0" y="1402.0"/>
      <point x="604.0" y="1401.0" type="qcurve" smooth="yes"/>
      <point x="453.0" y="1400.0"/>
      <point x="256.0" y="1219.0"/>
      <point x="256.0" y="1046.0" type="qcurve" smooth="yes"/>
      <point x="256.0" y="1030.0" type="line"/>
      <point x="218.2463768115942" y="1030.0" type="line"/>
      <point x="218.2463768115942" y="1045.0" type="line" smooth="yes"/>
      <point x="218.2463768115942" y="1243.0"/>
      <point x="433.72463768115944" y="1486.0"/>
      <point x="604.0" y="1486.0" type="qcurve" smooth="yes"/>
      <point x="770.2753623188406" y="1486.0"/>
      <point x="948.1304347826087" y="1250.0"/>
      <point x="948.1304347826087" y="1103.0" type="qcurve" smooth="yes"/>
      <point x="948.1304347826087" y="952.0"/>
      <point x="836.9565217391305" y="715.4927536231884"/>
      <point x="728.7391304347826" y="595.0" type="qcurve" smooth="yes"/>
      <point x="267.07246376811594" y="80.23188405797102" type="line"/>
      <point x="992.4782608695652" y="80.23188405797102" type="line"/>
      <point x="992.4782608695652" y="0.0" type="line"/>
    </contour>
  </outline>
</glyph>
<glyph name="question" format="2">
  <advance width="678"/>
  <unicode hex="003F"/>
  <outline>
    <contour>
      <point x="241.82318840579708" y="67.08" type="qcurve" smooth="yes"/>
      <point x="241.82318840579708" y="103.84"/>
      <point x="264.50115942028987" y="156.16"/>
      <point x="285.41275362318845" y="156.16" type="qcurve" smooth="yes"/>
      <point x="306.3243478260869" y="156.16"/>
      <point x="329.0023188405797" y="103.84"/>
      <point x="329.0023188405797" y="67.08" type="qcurve" smooth="yes"/>
      <point x="329.0023188405797" y="30.32"/>
      <point x="306.3243478260869" y="-22.0"/>
      <point x="285.41275362318845" y="-22.0" type="qcurve" smooth="yes"/>
      <point x="264.50115942028987" y="-22.0"/>
      <point x="241.82318840579708" y="30.32"/>
    </contour>
    <contour>
      <point x="44.64000000000001" y="1095.0" type="line"/>
      <point x="44.64000000000001" y="1115.0" type="line" smooth="yes"/>
      <point x="44.64000000000001" y="1277.76"/>
      <point x="195.2631884057971" y="1476.0"/>
      <point x="325.7744927536232" y="1476.0" type="qcurve" smooth="yes"/>
      <point x="454.21217391304344" y="1476.0"/>
      <point x="600.7489855072464" y="1281.36"/>
      <point x="600.7489855072464" y="1134.0" type="qcurve" smooth="yes"/>
      <point x="600.7489855072464" y="996.88"/>
      <point x="531.0730434782608" y="821.52"/>
      <point x="447.2585507246377" y="733.04" type="qcurve" smooth="yes"/>
      <point x="362.56260869565216" y="638.16"/>
      <point x="303.52086956521737" y="497.44"/>
      <point x="303.52086956521737" y="420.0" type="qcurve" smooth="yes"/>
      <point x="303.52086956521737" y="410.0" type="line"/>
      <point x="263.8231884057971" y="410.0" type="line"/>
      <point x="263.8231884057971" y="420.0" type="line" smooth="yes"/>
      <point x="263.8231884057971" y="535.12"/>
      <point x="347.4617391304348" y="691.48"/>
      <point x="420.1750724637681" y="782.04" type="qcurve" smooth="yes"/>
      <point x="495.80376811594203" y="871.32"/>
      <point x="561.0513043478261" y="1020.56"/>
      <point x="561.0513043478261" y="1134.0" type="qcurve" smooth="yes"/>
      <point x="561.0513043478261" y="1246.16"/>
      <point x="443.93449275362315" y="1390.16"/>
      <point x="325.7744927536232" y="1390.16" type="qcurve" smooth="yes"/>
      <point x="207.77449275362318" y="1390.16"/>
      <point x="84.45449275362319" y="1244.6"/>
      <point x="84.45449275362319" y="1115.0" type="qcurve" smooth="yes"/>
      <point x="84.45449275362319" y="1095.0" type="line"/>
    </contour>
  </outline>
</glyph>
<glyph name="A" format="2">
  <advance width="1136"/>
  <unicode hex="0041"/>
  <anchor x="561.1594202898551" y="1432.0" name="top"/>
  <outline>
    <contour>
      <point x="0.0" y="0.0" type="line"/>
      <point x="527.4" y="1466.0" type="line"/>
      <point x="608.6498550724638" y="1466.0" type="line"/>
      <point x="1135.136231884058" y="0.0" type="line"/>
      <point x="1090.616231884058" y="0.0" type="line"/>
      <point x="642.8869565217391" y="1254.216811594203" type="line" smooth="yes"/>
      <point x="629.2269565217391" y="1290.856811594203"/>
      <point x="603.415652173913" y="1366.776231884058"/>
      <point x="594.655652173913" y="1402.496231884058" type="qcurve"/>
      <point x="583.4220289855073" y="1402.496231884058" type="line"/>
      <point x="573.6915942028985" y="1366.776231884058"/>
      <point x="547.3434782608696" y="1290.103188405797"/>
      <point x="534.0602898550725" y="1254.216811594203" type="qcurve" smooth="yes"/>
      <point x="90.78318840579709" y="0.0" type="line"/>
    </contour>
    <contour>
      <point x="197.8840579710145" y="421.0" type="line"/>
      <point x="227.1304347826087" y="500.0" type="line"/>
      <point x="933.536231884058" y="500.0" type="line"/>
      <point x="962.536231884058" y="421.0" type="line"/>
    </contour>
  </outline>
</glyph>
<glyph name="E" format="2">
  <advance width="922"/>
  <unicode hex="0045"/>
  <anchor x="524.0" y="1385.2753623188405" name="top"/>
  <outline>
    <contour>
      <point x="170.0" y="0.0" type="line"/>
      <point x="170.0" y="1456.0" type="line"/>
      <point x="843.6707246376811" y="1456.0" type="line"/>
      <point x="843.6707246376811" y="1371.44" type="line"/>
      <point x="207.88" y="1371.44" type="line"/>
      <point x="207.88" y="793.28" type="line"/>
      <point x="747.9907246376811" y="793.28" type="line"/>
      <point x="747.9907246376811" y="708.72" type="line"/>
      <point x="207.88" y="708.72" type="line"/>
      <point x="207.88" y="84.55999999999999" type="line"/>
      <point x="853.9907246376811" y="84.55999999999999" type="line"/>
      <point x="853.9907246376811" y="0.0" type="line"/>
    </contour>
  </outline>
</glyph>
<glyph name="H" format="2">
  <advance width="1195"/>
  <unicode hex="0048"/>
  <outline>
    <contour>
      <point x="170.0" y="0.0" type="line"/>
      <point x="170.0" y="1456.0" type="line"/>
      <point x="207.88" y="1456.0" type="line"/>
      <point x="207.88" y="793.28" type="line"/>
      <point x="986.6800000000001" y="793.28" type="line"/>
      <point x="986.6800000000001" y="1456.0" type="line"/>
      <point x="1024.56" y="1456.0" type="line"/>
      <point x="1024.56" y="0.0" type="line"/>
      <point x="986.6800000000001" y="0.0" type="line"/>
      <point x="986.6800000000001" y="708.72" type="line"/>
      <point x="207.88" y="708.72" type="line"/>
      <point x="207.88" y="0.0" type="line"/>
    </contour>
  </outline>
</glyph>
<glyph name="J" format="2">
  <advance width="829"/>
  <unicode hex="004A"/>
  <outline>
    <contour>
      <point x="25.0" y="408.0" type="qcurve" smooth="yes"/>
      <point x="25.0" y="418.0" type="line"/>
      <point x="63.9968115942029" y="418.0" type="line"/>
      <point x="63.9968115942029" y="408.0" type="line" smooth="yes"/>
      <point x="63.9968115942029" y="236.07999999999998"/>
      <point x="217.97726497945058" y="56.47999999999999"/>
      <point x="350.39681159420286" y="56.47999999999999" type="qcurve" smooth="yes"/>
      <point x="482.8163582089552" y="56.47999999999999"/>
      <point x="636.7968115942028" y="251.75120274914087"/>
      <point x="636.7968115942028" y="433.0" type="qcurve" smooth="yes"/>
      <point x="636.7968115942028" y="1456.0" type="line"/>
      <point x="674.6768115942028" y="1456.0" type="line"/>
      <point x="674.6768115942028" y="433.0" type="line" smooth="yes"/>
      <point x="674.6768115942028" y="218.6276923076923"/>
      <point x="495.431304347826" y="-30.0"/>
      <point x="350.39681159420286" y="-30.0" type="qcurve" smooth="yes"/>
      <point x="205.36231884057972" y="-30.0"/>
      <point x="25.0" y="204.32"/>
    </contour>
  </outline>
</glyph>
<glyph name="K" format="2">
  <advance width="1078"/>
  <unicode hex="004B"/>
  <outline>
    <contour>
      <point x="170.0" y="0.0" type="line"/>
      <point x="170.0" y="1456.0" type="line"/>
      <point x="208.1304347826087" y="1456.0" type="line"/>
      <point x="208.1304347826087" y="669.0" type="line"/>
      <point x="957.2208695652174" y="1456.0" type="line"/>
      <point x="1073.4440579710144" y="1456.0" type="line"/>
      <point x="209.01043478260868" y="551.76" type="line"/>
      <point x="209.01043478260868" y="0.0" type="line"/>
    </contour>
    <contour>
      <point x="1043.0939130434783" y="0.0" type="line"/>
      <point x="403.79536231884055" y="819.064347826087" type="line"/>
      <point x="431.1159420289855" y="849.7472463768116" type="line"/>
      <point x="1097.7304347826087" y="0.0" type="line"/>
    </contour>
  </outline>
</glyph>
<glyph name="N" format="2">
  <advance width="1306"/>
  <unicode hex="004E"/>
  <anchor x="629.5072463768116" y="1432.0" name="top"/>
  <outline>
    <contour>
      <point x="170.0" y="0.0" type="line"/>
      <point x="170.0" y="1456.0" type="line"/>
      <point x="249.6231884057971" y="1456.0" type="line"/>
      <point x="978.5072463768116" y="213.0144927536232" type="line" smooth="yes"/>
      <point x="996.1304347826087" y="182.0144927536232"/>
      <point x="1029.5072463768115" y="121.01449275362319"/>
      <point x="1044.2608695652175" y="96.01449275362319" type="qcurve"/>
      <point x="1055.2608695652175" y="96.01449275362319" type="line"/>
      <point x="1053.5072463768115" y="126.01449275362319"/>
      <point x="1048.376811594203" y="181.0144927536232"/>
      <point x="1048.376811594203" y="211.0144927536232" type="qcurve" smooth="yes"/>
      <point x="1048.376811594203" y="1456.0" type="line"/>
      <point x="1136.48" y="1456.0" type="line"/>
      <point x="1136.48" y="0.0" type="line"/>
      <point x="1057.7536231884058" y="0.0" type="line"/>
      <point x="325.8695652173913" y="1244.2173913043478" type="line" smooth="yes"/>
      <point x="308.2463768115942" y="1275.2173913043478"/>
      <point x="266.8695652173913" y="1344.2173913043478"/>
      <point x="259.8695652173913" y="1366.2173913043478" type="qcurve"/>
      <point x="250.8695652173913" y="1366.2173913043478" type="line"/>
      <point x="254.8695652173913" y="1334.2173913043478"/>
      <point x="259.0" y="1254.2173913043478"/>
      <point x="259.0" y="1224.2173913043478" type="qcurve" smooth="yes"/>
      <point x="259.0" y="0.0" type="line"/>
    </contour>
  </outline>
</glyph>
<glyph name="Q" format="2">
  <advance width="1199"/>
  <unicode hex="0051"/>
  <outline>
    <contour>
      <point x="115.0" y="686.8" type="qcurve" smooth="yes"/>
      <point x="115.0" y="769.2" type="line" smooth="yes"/>
      <point x="115.0" y="1107.44"/>
      <point x="385.531884057971" y="1486.0"/>
      <point x="599.4031884057971" y="1486.0" type="qcurve" smooth="yes"/>
      <point x="813.1144927536232" y="1486.0"/>
      <point x="1083.8063768115942" y="1107.44"/>
      <point x="1083.8063768115942" y="769.2" type="qcurve" smooth="yes"/>
      <point x="1083.8063768115942" y="686.8" type="line" smooth="yes"/>
      <point x="1083.8063768115942" y="348.56"/>
      <point x="813.1144927536232" y="-30.0"/>
      <point x="599.4031884057971" y="-30.0" type="qcurve" smooth="yes"/>
      <point x="385.531884057971" y="-30.0"/>
      <point x="115.0" y="348.56"/>
    </contour>
    <contour>
      <point x="153.76318840579708" y="686.8" type="line" smooth="yes"/>
      <point x="153.76318840579708" y="387.76"/>
      <point x="400.4368115942029" y="56.47999999999999"/>
      <point x="599.4031884057971" y="56.47999999999999" type="qcurve" smooth="yes"/>
      <point x="798.2095652173912" y="56.47999999999999"/>
      <point x="1045.043188405797" y="387.76"/>
      <point x="1045.043188405797" y="686.8" type="qcurve" smooth="yes"/>
      <point x="1045.043188405797" y="769.2" type="line" smooth="yes"/>
      <point x="1045.043188405797" y="1068.24"/>
      <point x="798.2095652173912" y="1399.52"/>
      <point x="599.4031884057971" y="1399.52" type="qcurve" smooth="yes"/>
      <point x="400.4368115942029" y="1399.52"/>
      <point x="153.76318840579708" y="1068.24"/>
      <point x="153.76318840579708" y="769.2" type="qcurve" smooth="yes"/>
    </contour>
    <contour>
      <point x="1104.8579710144927" y="-222.4231884057971" type="line"/>
      <point x="596.1930434782608" y="227.16521739130437" type="line"/>
      <point x="629.3689855072464" y="266.0220289855073" type="line"/>
      <point x="1142.6684057971015" y="-179.7055072463768" type="line"/>
    </contour>
  </outline>
</glyph>
<glyph name="W" format="2">
  <advance width="1708"/>
  <unicode hex="0057"/>
  <outline>
    <contour>
      <point x="420.58086956521737" y="-10.0" type="line"/>
      <point x="50.0" y="1456.0" type="line"/>
      <point x="93.20405797101449" y="1456.0" type="line"/>
      <point x="415.91275362318834" y="206.9797101449275" type="line" smooth="yes"/>
      <point x="424.7695652173913" y="173.35652173913041"/>
      <point x="434.9440579710145" y="111.97971014492751"/>
      <point x="438.3208695652174" y="78.97971014492751" type="qcurve"/>
      <point x="444.6408695652174" y="78.97971014492751" type="line"/>
      <point x="447.80086956521734" y="111.97971014492751"/>
      <point x="457.27536231884056" y="172.57971014492753"/>
      <point x="466.27536231884056" y="206.57971014492753" type="qcurve" smooth="yes"/>
      <point x="802.055652173913" y="1456.0" type="line"/>
      <point x="878.5414492753624" y="1456.0" type="line"/>
      <point x="1212.8985507246377" y="205.44927536231884" type="line" smooth="yes"/>
      <point x="1221.8985507246377" y="171.07246376811594"/>
      <point x="1235.1226086956522" y="110.84927536231882"/>
      <point x="1238.1226086956522" y="77.84927536231882" type="qcurve"/>
      <point x="1244.442608695652" y="77.84927536231882" type="line"/>
      <point x="1247.6026086956522" y="110.84927536231882"/>
      <point x="1254.7626086956523" y="171.84927536231882"/>
      <point x="1263.0826086956522" y="205.84927536231882" type="qcurve" smooth="yes"/>
      <point x="1567.7988405797103" y="1456.0" type="line"/>
      <point x="1657.8556521739129" y="1456.0" type="line"/>
      <point x="1290.4492753623188" y="-10.0" type="line"/>
      <point x="1223.1889855072466" y="-10.0" type="line"/>
      <point x="880.9855072463768" y="1262.0" type="line" smooth="yes"/>
      <point x="871.9855072463768" y="1296.0"/>
      <point x="863.1159420289855" y="1344.9420289855072"/>
      <point x="861.2463768115942" y="1371.159420289855" type="qcurve"/>
      <point x="856.2463768115942" y="1371.159420289855" type="line"/>
      <point x="854.3768115942029" y="1346.4492753623188"/>
      <point x="846.2608695652174" y="1296.0"/>
      <point x="837.2608695652174" y="1262.0" type="qcurve" smooth="yes"/>
      <point x="490.85565217391303" y="-10.0" type="line"/>
    </contour>
  </outline>
</glyph>
<glyph name="backslash" format="2">
  <advance width="482"/>
  <unicode hex="005C"/>
  <outline>
    <contour>
      <point x="-100.0" y="1456.0" type="line"/>
      <point x="-57.05739130434783" y="1456.0" type="line"/>
      <point x="581.3426086956521" y="-125.0" type="line"/>
      <point x="538.24" y="-125.0" type="line"/>
    </contour>
  </outline>
</glyph>
<glyph name="asciicircum" format="2">
  <advance width="1070"/>
  <unicode hex="005E"/>
  <outline>
    <contour>
      <point x="25.0" y="720.0" type="line"/>
      <point x="522.4" y="1456.0" type="line"/>
      <point x="547.2144927536233" y="1456.0" type="line"/>
      <point x="1044.6144927536232" y="720.0" type="line"/>
      <point x="989.8" y="720.0" type="line"/>
      <point x="534.8072463768116" y="1363.92" type="line"/>
      <point x="79.8144927536232" y="720.0" type="line"/>
    </contour>
  </outline>
</glyph>
<glyph name="b" format="2">
  <advance width="925"/>
  <unicode hex="0062"/>
  <outline>
    <contour>
      <point x="148.0" y="0.0" type="line"/>
      <point x="148.0" y="1536.0" type="line"/>
      <point x="186.58086956521737" y="1536.0" type="line"/>
      <point x="186.58086956521737" y="923.2" type="line"/>
      <point x="236.15768269475876" y="988.8481430979721"/>
      <point x="389.2672772124576" y="1072.0"/>
      <point x="492.7165217391304" y="1072.0" type="qcurve" smooth="yes"/>
      <point x="659.5640579710144" y="1072.0"/>
      <point x="839.6144927536232" y="772.0"/>
      <point x="839.6144927536232" y="542.0" type="qcurve" smooth="yes"/>
      <point x="839.6144927536232" y="510.0" type="line" smooth="yes"/>
      <point x="839.6144927536232" y="280.0"/>
      <point x="659.5640579710144" y="-20.0"/>
      <point x="492.7165217391304" y="-20.0" type="qcurve" smooth="yes"/>
      <point x="389.3116863063795" y="-20.0"/>
      <point x="225.26002476312368" y="76.23997054042185"/>
      <point x="182.4208695652174" y="141.8" type="qcurve"/>
      <point x="181.68811594202901" y="141.8" type="line"/>
      <point x="182.1426086956522" y="0.0" type="line"/>
    </contour>
    <contour>
      <point x="186.58086956521737" y="248.8" type="line"/>
      <point x="220.54451260148807" y="175.99387307536296"/>
      <point x="374.2698668551903" y="62.64"/>
      <point x="483.9808695652174" y="62.64" type="qcurve" smooth="yes"/>
      <point x="648.2541690576031" y="62.64"/>
      <point x="801.5008695652174" y="320.76"/>
      <point x="801.5008695652174" y="510.0" type="qcurve" smooth="yes"/>
      <point x="801.5008695652174" y="542.0" type="line" smooth="yes"/>
      <point x="801.5008695652174" y="731.24"/>
      <point x="648.2541690576031" y="989.36"/>
      <point x="483.9808695652174" y="989.36" type="qcurve" smooth="yes"/>
      <point x="374.2698668551903" y="989.36"/>
      <point x="220.52998884211968" y="875.9817006020629"/>
      <point x="186.58086956521737" y="803.2" type="qcurve"/>
    </contour>
  </outline>
</glyph>
<glyph name="g" format="2">
  <advance width="925"/>
  <unicode hex="0067"/>
  <outline>
    <contour>
      <point x="121.77275362318841" y="-318.0" type="qcurve"/>
      <point x="144.7942028985507" y="-242.60000000000002" type="line"/>
      <point x="186.73014492753623" y="-287.6"/>
      <point x="338.63391304347823" y="-350.16"/>
      <point x="419.67362318840577" y="-350.16" type="qcurve" smooth="yes"/>
      <point x="567.3201042010639" y="-350.16"/>
      <point x="738.0336231884057" y="-156.04"/>
      <point x="738.0336231884057" y="20.0" type="qcurve" smooth="yes"/>
      <point x="738.0336231884057" y="128.8" type="line"/>
      <point x="688.5104347826087" y="63.08"/>
      <point x="535.3857971014493" y="-20.0"/>
      <point x="431.8979710144927" y="-20.0" type="qcurve" smooth="yes"/>
      <point x="265.0504347826087" y="-20.0"/>
      <point x="85.0" y="280.0"/>
      <point x="85.0" y="510.0" type="qcurve" smooth="yes"/>
      <point x="85.0" y="542.0" type="line" smooth="yes"/>
      <point x="85.0" y="772.0"/>
      <point x="265.0504347826087" y="1072.0"/>
      <point x="431.8979710144927" y="1072.0" type="qcurve" smooth="yes"/>
      <point x="535.2257971014492" y="1072.0"/>
      <point x="699.3104347826087" y="975.76"/>
      <point x="742.1936231884057" y="910.2" type="qcurve"/>
      <point x="742.9263768115942" y="910.2" type="line"/>
      <point x="742.471884057971" y="1052.0" type="line"/>
      <point x="776.6144927536232" y="1052.0" type="line"/>
      <point x="776.6144927536232" y="20.0" type="line" smooth="yes"/>
      <point x="776.6144927536232" y="-200.0"/>
      <point x="581.1017391304347" y="-436.0"/>
      <point x="424.8336231884058" y="-436.0" type="qcurve" smooth="yes"/>
      <point x="332.14608695652174" y="-436.0"/>
      <point x="177.52289855072462" y="-370.4"/>
    </contour>
    <contour>
      <point x="123.11362318840581" y="510.0" type="line" smooth="yes"/>
      <point x="123.11362318840581" y="320.76"/>
      <point x="276.3936231884058" y="62.64"/>
      <point x="440.6336231884058" y="62.64" type="qcurve" smooth="yes"/>
      <point x="550.3936231884057" y="62.64"/>
      <point x="704.1536231884057" y="176.04"/>
      <point x="738.0336231884057" y="248.8" type="qcurve"/>
      <point x="738.0336231884057" y="803.2" type="line"/>
      <point x="703.9936231884058" y="875.96"/>
      <point x="550.3936231884057" y="989.36"/>
      <point x="440.6336231884058" y="989.36" type="qcurve" smooth="yes"/>
      <point x="276.3936231884058" y="989.36"/>
      <point x="123.11362318840581" y="731.24"/>
      <point x="123.11362318840581" y="542.0" type="qcurve" smooth="yes"/>
    </contour>
  </outline>
</glyph>
<glyph name="h" format="2">
  <advance width="893"/>
  <unicode hex="0068"/>
  <outline>
    <contour>
      <point x="148.0" y="0.0" type="line"/>
      <point x="148.0" y="1536.0" type="line"/>
      <point x="186.58086956521737" y="1536.0" type="line"/>
      <point x="186.58086956521737" y="911.6" type="line"/>
      <point x="234.9423188405797" y="984.76"/>
      <point x="381.56434782608693" y="1072.0"/>
      <point x="478.7626086956522" y="1072.0" type="qcurve" smooth="yes"/>
      <point x="608.0086956521739" y="1072.0"/>
      <point x="754.2817391304347" y="914.92"/>
      <point x="754.2817391304347" y="731.0" type="qcurve" smooth="yes"/>
      <point x="754.2817391304347" y="0.0" type="line"/>
      <point x="715.7008695652173" y="0.0" type="line"/>
      <point x="715.7008695652173" y="733.0" type="line" smooth="yes"/>
      <point x="715.7008695652173" y="869.6800000000001"/>
      <point x="590.5408695652173" y="988.08"/>
      <point x="475.5008695652174" y="988.08" type="qcurve" smooth="yes"/>
      <point x="377.7008695652174" y="988.08"/>
      <point x="230.65768115942026" y="883.76"/>
      <point x="186.58086956521737" y="802.4" type="qcurve"/>
      <point x="186.58086956521737" y="0.0" type="line"/>
    </contour>
  </outline>
</glyph>
<glyph name="k" format="2">
  <advance width="840"/>
  <unicode hex="006B"/>
  <outline>
    <contour>
      <point x="148.0" y="0.0" type="line"/>
      <point x="148.0" y="1536.0" type="line"/>
      <point x="186.58086956521737" y="1536.0" type="line"/>
      <point x="186.58086956521737" y="552.184347826087" type="line"/>
      <point x="699.7101449275362" y="1052.0" type="line"/>
      <point x="822.0176811594202" y="1052.0" type="line"/>
      <point x="186.26086956521738" y="432.1304347826087" type="line"/>
      <point x="186.26086956521738" y="0.0" type="line"/>
    </contour>
    <contour>
      <point x="791.9971014492753" y="0.0" type="line"/>
      <point x="310.8973913043478" y="602.023768115942" type="line"/>
      <point x="341.80202898550726" y="638.072463768116" type="line"/>
      <point x="852.0289855072464" y="0.0" type="line"/>
    </contour>
  </outline>
</glyph>
<glyph name="n" format="2">
  <advance width="893"/>
  <unicode hex="006E"/>
  <anchor x="477.2608695652174" y="1052.0" name="top"/>
  <outline>
    <contour>
      <point x="148.0" y="0.0" type="line"/>
      <point x="148.0" y="1052.0" type="line"/>
      <point x="182.1426086956522" y="1052.0" type="line"/>
      <point x="181.68811594202901" y="907.4" type="line"/>
      <point x="182.4208695652174" y="907.4" type="line"/>
      <point x="231.6223188405797" y="983.92"/>
      <point x="385.3562623951182" y="1072.0"/>
      <point x="483.28434782608696" y="1072.0" type="qcurve" smooth="yes"/>
      <point x="608.0086956521739" y="1072.0"/>
      <point x="754.2817391304347" y="914.9491094147583"/>
      <point x="754.2817391304347" y="731.0" type="qcurve" smooth="yes"/>
      <point x="754.2817391304347" y="0.0" type="line"/>
      <point x="715.7008695652173" y="0.0" type="line"/>
      <point x="715.7008695652173" y="733.0" type="line" smooth="yes"/>
      <point x="715.7008695652173" y="869.7662978723404"/>
      <point x="590.5446661753869" y="988.08"/>
      <point x="475.5008695652174" y="988.08" type="qcurve" smooth="yes"/>
      <point x="377.75762934175367" y="988.08"/>
      <point x="230.61169703085633" y="883.7911870106603"/>
      <point x="186.58086956521737" y="802.4" type="qcurve"/>
      <point x="186.58086956521737" y="0.0" type="line"/>
    </contour>
  </outline>
</glyph>
<glyph name="s" format="2">
  <advance width="765"/>
  <unicode hex="0073"/>
  <outline>
    <contour>
      <point x="80.0" y="310.0" type="line"/>
      <point x="118.58086956521738" y="310.0" type="line"/>
      <point x="118.58086956521738" y="305.0" type="line" smooth="yes"/>
      <point x="118.58086956521738" y="177.28"/>
      <point x="266.13749607124146" y="52.64"/>
      <point x="387.3808695652174" y="52.64" type="qcurve" smooth="yes"/>
      <point x="508.6437626469784" y="52.64"/>
      <point x="644.4104347826087" y="171.92"/>
      <point x="644.4104347826087" y="268.66086956521735" type="qcurve" smooth="yes"/>
      <point x="644.4104347826087" y="363.6"/>
      <point x="536.4257971014492" y="483.1814492753623"/>
      <point x="397.54463768115943" y="523.7182608695653" type="qcurve" smooth="yes"/>
      <point x="251.5040579710145" y="566.5159420289855"/>
      <point x="113.1304347826087" y="702.072463768116"/>
      <point x="113.1304347826087" y="810.4057971014493" type="qcurve" smooth="yes"/>
      <point x="113.1304347826087" y="927.0"/>
      <point x="267.7576811594203" y="1082.0"/>
      <point x="391.1489855072464" y="1082.0" type="qcurve" smooth="yes"/>
      <point x="515.6571014492754" y="1082.0"/>
      <point x="667.8866666666667" y="902.6550724637681"/>
      <point x="667.8866666666667" y="758.1159420289855" type="qcurve" smooth="yes"/>
      <point x="667.8866666666667" y="753.1159420289855" type="line"/>
      <point x="629.1889855072463" y="753.1159420289855" type="line"/>
      <point x="629.1889855072463" y="756.6086956521739" type="line" smooth="yes"/>
      <point x="629.1889855072463" y="871.1327536231884"/>
      <point x="501.69100655151874" y="999.36"/>
      <point x="391.1489855072464" y="999.36" type="qcurve" smooth="yes"/>
      <point x="280.4895396118195" y="999.36"/>
      <point x="151.3913043478261" y="897.0"/>
      <point x="151.3913043478261" y="808.7246376811594" type="qcurve" smooth="yes"/>
      <point x="151.3913043478261" y="720.5797101449275"/>
      <point x="270.4026086956522" y="609.1466666666666"/>
      <point x="408.53014492753624" y="568.9866666666667" type="qcurve" smooth="yes"/>
      <point x="546.6576811594202" y="528.8266666666666"/>
      <point x="684.1217391304348" y="392.25797101449274"/>
      <point x="684.1217391304348" y="272.631884057971" type="qcurve" smooth="yes"/>
      <point x="684.1217391304348" y="143.2"/>
      <point x="536.788115942029" y="-30.0"/>
      <point x="387.3808695652174" y="-30.0" type="qcurve" smooth="yes"/>
      <point x="237.8136231884058" y="-30.0"/>
      <point x="80.0" y="150.96"/>
      <point x="80.0" y="305.0" type="qcurve" smooth="yes"/>
    </contour>
  </outline>
</glyph>
<glyph name="braceleft" format="2">
  <advance width="604"/>
  <unicode hex="007B"/>
  <outline>
    <contour>
      <point x="589.48" y="-312.0" type="line"/>
      <point x="398.56" y="-312.0"/>
      <point x="208.4272463768116" y="-49.641739130434786"/>
      <point x="252.5472463768116" y="124.87826086956522" type="qcurve" smooth="yes"/>
      <point x="303.5072463768116" y="329.4782608695652" type="line" smooth="yes"/>
      <point x="333.9072463768116" y="452.1182608695652"/>
      <point x="183.30434782608697" y="535.2"/>
      <point x="55.52" y="535.2" type="qcurve"/>
      <point x="55.52" y="612.8" type="line"/>
      <point x="183.30434782608697" y="612.8"/>
      <point x="329.0086956521739" y="694.7513043478261"/>
      <point x="298.60869565217394" y="817.3913043478261" type="qcurve" smooth="yes"/>
      <point x="247.6486956521739" y="1021.9913043478261" type="line" smooth="yes"/>
      <point x="203.52869565217392" y="1196.511304347826"/>
      <point x="398.56" y="1460.0"/>
      <point x="589.48" y="1460.0" type="qcurve"/>
      <point x="589.48" y="1379.28" type="line"/>
      <point x="426.28" y="1379.28"/>
      <point x="267.9069565217391" y="1172.6040579710145"/>
      <point x="306.92695652173916" y="1020.4840579710145" type="qcurve" smooth="yes"/>
      <point x="357.88695652173914" y="815.8840579710145" type="line" smooth="yes"/>
      <point x="379.00695652173914" y="732.2040579710145"/>
      <point x="311.7455072463768" y="597.2695652173912"/>
      <point x="217.24" y="574.0" type="qcurve"/>
      <point x="312.1223188405797" y="551.1072463768116"/>
      <point x="381.32463768115946" y="418.5936231884058"/>
      <point x="360.52463768115945" y="334.7536231884058" type="qcurve" smooth="yes"/>
      <point x="309.56463768115947" y="130.15362318840582" type="line" smooth="yes"/>
      <point x="270.54463768115943" y="-21.966376811594206"/>
      <point x="426.28" y="-231.28"/>
      <point x="589.48" y="-231.28" type="qcurve"/>
    </contour>
  </outline>
</glyph>
<glyph name="hungarumlaut" format="2">
  <advance width="1024"/>
  <unicode hex="02DD"/>
  <anchor x="363.9710144927536" y="1771.1304347826087" name="mkmktop_acc"/>
  <outline>
    <contour>
      <point x="586.0" y="1207.0" type="line"/>
      <point x="816.0" y="1529.0" type="line"/>
      <point x="912.0" y="1482.0" type="line"/>
      <point x="654.0" y="1179.0" type="line"/>
    </contour>
    <contour>
      <point x="308.0" y="1207.0" type="line"/>
      <point x="486.0" y="1529.0" type="line"/>
      <point x="583.0" y="1482.0" type="line"/>
      <point x="367.0" y="1179.0" type="line"/>
    </contour>
  </outline>
</glyph>
<glyph name="hookabovecomb.case" format="2">
  <advance width="1024"/>
  <outline>
    <contour>
      <point x="384.0" y="1577.0" type="line"/>
      <point x="384.0" y="1616.0" type="line" smooth="yes"/>
      <point x="384.0" y="1668.0"/>
      <point x="445.0" y="1710.0"/>
      <point x="528.0" y="1724.0" type="qcurve" smooth="yes"/>
      <point x="589.0" y="1734.0"/>
      <point x="633.0" y="1777.0"/>
      <point x="633.0" y="1826.0" type="qcurve" smooth="yes"/>
      <point x="633.0" y="1875.0"/>
      <point x="568.0" y="1926.0"/>
      <point x="509.0" y="1926.0" type="qcurve" smooth="yes"/>
      <point x="439.0" y="1926.0"/>
      <point x="331.0" y="1885.0"/>
      <point x="311.0" y="1866.0" type="qcurve"/>
      <point x="257.0" y="1952.0" type="line"/>
      <point x="289.0" y="1971.0"/>
      <point x="432.0" y="2019.0"/>
      <point x="517.0" y="2019.0" type="qcurve" smooth="yes"/>
      <point x="625.0" y="2019.0"/>
      <point x="742.0" y="1914.0"/>
      <point x="742.0" y="1829.0" type="qcurve" smooth="yes"/>
      <point x="742.0" y="1745.0"/>
      <point x="612.0" y="1640.0"/>
      <point x="487.0" y="1628.0" type="qcurve"/>
      <point x="487.0" y="1577.0" type="line"/>
    </contour>
  </outline>
</glyph>
<glyph name="horncomb.case" format="2">
  <advance width="1024"/>
  <outline>
    <contour>
      <point x="382.0" y="1522.231884057971" type="line"/>
      <point x="455.0" y="1522.231884057971" type="line" smooth="yes"/>
      <point x="518.0" y="1522.231884057971"/>
      <point x="653.0" y="1553.231884057971"/>
      <point x="653.0" y="1610.231884057971" type="qcurve" smooth="yes"/>
      <point x="653.0" y="1651.231884057971"/>
      <point x="642.0" y="1724.231884057971"/>
      <point x="633.0" y="1760.231884057971" type="qcurve"/>
      <point x="718.536231884058" y="1760.231884057971" type="line"/>
      <point x="733.536231884058" y="1728.231884057971"/>
      <point x="762.536231884058" y="1641.231884057971"/>
      <point x="762.536231884058" y="1582.231884057971" type="qcurve" smooth="yes"/>
      <point x="762.536231884058" y="1514.231884057971"/>
      <point x="616.0" y="1434.9565217391305"/>
      <point x="530.0" y="1434.9565217391305" type="qcurve" smooth="yes"/>
      <point x="484.0" y="1434.9565217391305"/>
      <point x="408.0" y="1447.7101449275362"/>
      <point x="382.0" y="1457.463768115942" type="qcurve"/>
    </contour>
  </outline>
</glyph>
<glyph name="zerosuperior" format="2">
  <advance width="563"/>
  <outline>
    <contour>
      <point x="71.1304347826087" y="1016.7536231884058" type="qcurve" smooth="yes"/>
      <point x="71.1304347826087" y="1120.7536231884058" type="line" smooth="yes"/>
      <point x="71.1304347826087" y="1280.7536231884058"/>
      <point x="171.26086956521738" y="1476.7536231884058"/>
      <point x="281.42028985507244" y="1476.7536231884058" type="qcurve" smooth="yes"/>
      <point x="392.5797101449275" y="1476.7536231884058"/>
      <point x="492.3333333333333" y="1280.7536231884058"/>
      <point x="492.3333333333333" y="1120.7536231884058" type="qcurve" smooth="yes"/>
      <point x="492.3333333333333" y="1016.7536231884058" type="line" smooth="yes"/>
      <point x="492.3333333333333" y="856.7536231884058"/>
      <point x="392.5797101449275" y="660.7536231884058"/>
      <point x="281.42028985507244" y="660.7536231884058" type="qcurve" smooth="yes"/>
      <point x="171.26086956521738" y="660.7536231884058"/>
      <point x="71.1304347826087" y="856.7536231884058"/>
    </contour>
    <contour>
      <point x="109.17391304347825" y="1016.7536231884058" type="line" smooth="yes"/>
      <point x="109.17391304347825" y="895.7536231884058"/>
      <point x="184.42028985507247" y="741.7536231884058"/>
      <point x="281.42028985507244" y="741.7536231884058" type="qcurve" smooth="yes"/>
      <point x="379.42028985507244" y="741.7536231884058"/>
      <point x="454.28985507246375" y="895.7536231884058"/>
      <point x="454.28985507246375" y="1016.7536231884058" type="qcurve" smooth="yes"/>
      <point x="454.28985507246375" y="1120.7536231884058" type="line" smooth="yes"/>
      <point x="454.28985507246375" y="1241.7536231884058"/>
      <point x="379.42028985507244" y="1395.7536231884058"/>
      <point x="281.42028985507244" y="1395.7536231884058" type="qcurve" smooth="yes"/>
      <point x="184.42028985507247" y="1395.7536231884058"/>
      <point x="109.17391304347825" y="1241.7536231884058"/>
      <point x="109.17391304347825" y="1120.7536231884058" type="qcurve" smooth="yes"/>
    </contour>
  </outline>
</glyph>
